<?xml version="1.0" encoding="utf-8"?>
<!-- Svg Vector Icons : http://www.sfont.cn -->
<!DOCTYPE svg PUBLIC "-//W3C//DTD SVG 1.1//EN" "http://www.w3.org/Graphics/SVG/1.1/DTD/svg11.dtd">
<svg version="1.1" xmlns="http://www.w3.org/2000/svg" xmlns:xlink="http://www.w3.org/1999/xlink" x="0px" y="0px" viewBox="0 0 1000 1000" enable-background="new 0 0 1000 1000" xml:space="preserve">
<metadata> Svg Vector Icons : http://www.sfont.cn </metadata>
<g><path d="M500,990l-10.4-4C155.5,856.8,116.8,688,116.8,572.3V130.2l29.8,1c232.3,7.9,331.2-96.9,332.1-97.9L500,10l21.3,23.3c0.8,0.8,94.5,98.4,307.3,98.4h0c8.1,0,16.4-0.1,24.7-0.4l29.8-1v442.1c0,115.7-38.6,284.6-372.8,413.7L500,990L500,990z M174.5,189.3v382.9c0,62.2,0,226.6,325.5,355.9c325.5-129.3,325.5-293.6,325.5-355.9V189.3c-180.2-0.7-284-64.8-325.5-98C458.4,124.4,354.7,188.6,174.5,189.3L174.5,189.3z"/><path d="M241.7,524.3l59.3-48l118.6,87.5c0,0,163.8-169.4,321.9-248.5l22.6,25.4c0,0-197.6,163.8-299.3,381.2L241.7,524.3L241.7,524.3z"/></g>
</svg>